<svg xmlns="http://www.w3.org/2000/svg" xml:space="preserve" viewBox="0 0 1000 1000"><path d="M960.85 941.02c-15.84 35.22-40.83 55.54-74.39 44.6-24.67-8.04-54.13-31.32-62.28-54.56-23.69-67.47-39.73-137.91-54.71-208.05-7.41-34.67-20.15-47.12-57.41-44.35-78.7 5.84-157.89 4.63-236.77 8.58-50.54 2.53-82.15-18.33-96.79-66.36-26.13-85.73-52.69-171.32-78.49-257.14-11.77-39.17-9.96-77.11 30.47-98.02 35.04-18.13 76.66 4.38 96.18 53.62 28.36 71.54 53.92 144.33 77.03 217.73 9.58 30.41 23.46 38.19 54.16 35.17 62.45-6.15 125.34-8.29 188.09-10.92 77.38-3.24 121.03 27.82 144.74 101.22 24.34 75.35 48.67 150.7 73 226.05 5.5 17.04 4.73 35.55-2.58 51.9-.09.17-.17.35-.25.53z"></path><path d="M463.2 986.93c-55.68-.01-111.38-1.03-167.03.33-40.17.98-65.39-17.64-75.52-54.66C160.11 711.28 97.44 490.46 42.39 267.76c-15.16-61.32-9.36-128.54-8.24-192.96.82-47.36 37.19-63.88 78.06-63.86 43.13.01 86.71 10.56 91.03 63.62 4.05 49.64-2.28 100.04-.75 150.01 1.19 38.81.99 79.52 12.59 115.81 40.32 126.17 86.94 250.32 127.91 376.29 11.32 34.81 27.25 41.38 61.64 38.25 85.73-7.81 171.91-12.15 258-14.27 67.79-1.67 80.3 16.81 63.37 81.29-43.33 165.01-43.33 165.01-214.31 165.01-16.16-.01-32.33-.01-48.49-.02z"></path><path d="M362.09 211.08c-52.47.92-98.61-41.6-100.52-92.62-1.8-48.09 44.95-97.56 94.6-100.09 50.31-2.57 96.14 41.9 97.67 94.77 1.58 54.6-38.14 97-91.75 97.94z"></path></svg>